<!-- icon666.com - MILLIONS vector ICONS FREE --><svg clip-rule="evenodd" fill-rule="evenodd" stroke-linejoin="round" stroke-miterlimit="2" viewBox="0 0 32 32" xmlns="http://www.w3.org/2000/svg"><g><path d="m5 25-3.007-3.023s-2.007-1.824 0-5.014 7.007-7.963 7.007-7.963 3.898-2.554 5.328-2c1.431.553 4.672 4 4.672 4l.278 1h10.722l-.008 3v1h1.008v4h-2v4.028h-19.383s-1.018.649-2.011.972c-.993.322-2.606 0-2.606 0z" fill="#e8995b"></path><path d="m27 11.967h2.992l.008 4.033h1v4h-2v4h-3v-4h2v-4h-1z" fill="#e9c46a"></path><path d="m21 11.967v4.033h-2v8h-8v-1s4-3 5.5-5 2.5-6.033 2.5-6.033z" fill="#e76f51"></path><path d="m3.751 15.5s-3.751 4.5-1.751 6.5 3 3 3 3 2 0 3.5-.5 2.5-1.5 2.5-1.5l-3-3.839c-5 1.839-5.5.839-4.249-3.661z" fill="#e76f51"></path><path d="m10.314 9.224c3.159-.266 4.173.567 2.373 5.455l3.879 2.321s2.434-4.5 2.434-5.5-4-4.5-4-4.5c-2.757-.309-3.904.797-4.686 2.224z" fill="#e9c46a"></path><path d="m14 5.971c-.878.024-1.807.277-2.783.695-1.953.837-4.11 2.356-6.139 4.385s-3.551 4.19-4.388 6.143c-.419.976-.671 1.905-.696 2.783-.02.766.174 1.522.637 2.123.052.1.121.19.203.267l2.828 2.828c.63.63 1.513.859 2.391.835.878-.025 1.807-.277 2.783-.696.453-.194.918-.432 1.389-.697.166.203.418.343.767.343h18.004c.553-.001.998-.451.996-1.003v-3.004h1.004c.549-.003.998-.456.996-1.004v-4.002c.002-.549-.447-1.002-.996-1.004v-2.996c.002-.555-.448-1.006-1.004-1.004h-10.06c-.125-.495-.346-.959-.717-1.33l-2.824-2.826h-.002c-.062-.062-.13-.116-.205-.16-.61-.496-1.394-.698-2.184-.676zm.051 1.994c.514-.014.772.104.924.256.151.152.266.405.252.92-.015.514-.19 1.235-.539 2.05-.699 1.631-2.079 3.636-3.956 5.512-1.876 1.876-3.887 3.264-5.517 3.963-.815.349-1.532.517-2.047.531-.5.014-.755-.087-.908-.232l-.025-.026c-.147-.153-.255-.414-.241-.916.015-.514.188-1.225.537-2.041.699-1.63 2.087-3.641 3.963-5.517s3.882-3.258 5.512-3.957c.815-.349 1.53-.529 2.045-.543zm3.021 2.354.733.732c.152.152.266.407.252.922-.015.514-.19 1.23-.539 2.045-.211.491-.503 1.023-.832 1.568l-1.379-1.379c.485-.758.916-1.509 1.224-2.228.245-.571.423-1.123.541-1.66zm2.868 2.644h3.054v2h-3.717c.023-.051.057-.104.079-.154.272-.637.467-1.251.584-1.846zm5.054 0h4.002v2h-4.002zm-10.865 2.901 1.4 1.4c-.578.757-1.221 1.522-1.968 2.269-.749.749-1.517 1.394-2.276 1.975l-1.398-1.402c.76-.598 1.518-1.247 2.26-1.989.74-.74 1.386-1.496 1.982-2.253zm5.861 1.099h4v2.012l-4 .002zm6.002 0h4v2.008l-4 .002zm-8.002.299v1.717h-1.254c.465-.574.88-1.147 1.254-1.717zm6 3.713h4.002v2.005h-4.002zm-6 .002h4v2.003h-4zm-3.042.002h1.048v2.001h-3.336c.769-.599 1.537-1.253 2.288-2.001zm-6.71.302 1.379 1.381c-.546.331-1.078.623-1.57.834-.815.35-1.538.517-2.053.531-.514.015-.77-.098-.922-.25l-.728-.728c.537-.119 1.088-.297 1.658-.541.721-.309 1.476-.74 2.236-1.227z" fill-rule="nonzero"></path></g></svg>